HIERARCHY
ROOT hip
{
  OFFSET 0 90.174 2.4664
  CHANNELS 6 Xposition Yposition Zposition Zrotation Xrotation Yrotation
  JOINT abdomen
  {
    OFFSET 0 -1.186 -1.5018
    CHANNELS 6 Xposition Yposition Zposition Zrotation Xrotation Yrotation
    JOINT abdomen2
    {
      OFFSET 0 9.964 0.2134
      CHANNELS 6 Xposition Yposition Zposition Zrotation Xrotation Yrotation
      JOINT chest
      {
        OFFSET 0 13.134 -3.2573
        CHANNELS 6 Xposition Yposition Zposition Zrotation Xrotation Yrotation
        JOINT neck
        {
          OFFSET 0 20.686 -1.6905
          CHANNELS 6 Xposition Yposition Zposition Zrotation Xrotation Yrotation
          JOINT head
          {
            OFFSET 0 7.238 -0.1237
            CHANNELS 6 Xposition Yposition Zposition Zrotation Xrotation Yrotation
            End Site
            {
              OFFSET 0 0 0
            }
          }
        }
        JOINT lCollar
        {
          OFFSET 1.7069 20.075 5.0056
          CHANNELS 6 Xposition Yposition Zposition Zrotation Xrotation Yrotation
          JOINT lShldr
          {
            OFFSET 13.6458 -0.047 -4.849
            CHANNELS 6 Xposition Yposition Zposition Zrotation Xrotation Yrotation
            JOINT lForeArm
            {
              OFFSET 28.3255 -0.9759 2.2888
              CHANNELS 6 Xposition Yposition Zposition Zrotation Xrotation Yrotation
              JOINT lHand
              {
                OFFSET 22.1583 -0.53 10.8316
                CHANNELS 6 Xposition Yposition Zposition Zrotation Xrotation Yrotation
                JOINT lThumb1
                {
                  OFFSET 0.786 0.112 2.5817
                  CHANNELS 6 Xposition Yposition Zposition Zrotation Xrotation Yrotation
                  JOINT lThumb2
                  {
                    OFFSET 0.3601 -0.878 4.2331
                    CHANNELS 6 Xposition Yposition Zposition Zrotation Xrotation Yrotation
                    JOINT lThumb2_End
                    {
                      OFFSET 1.8127 -1.216 2.2227
                      CHANNELS 6 Xposition Yposition Zposition Zrotation Xrotation Yrotation
                      End Site
                      {
                        OFFSET 0.0181 -0.0122 0.0222
                      }
                    }
                  }
                }
                JOINT lCarpal1
                {
                  OFFSET 0.9571 1.114 1.7695
                  CHANNELS 6 Xposition Yposition Zposition Zrotation Xrotation Yrotation
                  JOINT lIndex1
                  {
                    OFFSET 4.1246 0.487 4.1451
                    CHANNELS 6 Xposition Yposition Zposition Zrotation Xrotation Yrotation
                    JOINT lIndex2
                    {
                      OFFSET 3.4052 -1.454 2.7682
                      CHANNELS 6 Xposition Yposition Zposition Zrotation Xrotation Yrotation
                      JOINT lIndex2_End
                      {
                        OFFSET 1.4531 -1.795 1.2713
                        CHANNELS 6 Xposition Yposition Zposition Zrotation Xrotation Yrotation
                        End Site
                        {
                          OFFSET 0.0145 -0.0179 0.0127
                        }
                      }
                    }
                  }
                  JOINT lMid1
                  {
                    OFFSET 5.6954 0.21 2.1184
                    CHANNELS 6 Xposition Yposition Zposition Zrotation Xrotation Yrotation
                    JOINT lMid2
                    {
                      OFFSET 3.9766 -1.54 2.3863
                      CHANNELS 6 Xposition Yposition Zposition Zrotation Xrotation Yrotation
                      JOINT lMid2_End
                      {
                        OFFSET 1.4042 -1.926 1.125
                        CHANNELS 6 Xposition Yposition Zposition Zrotation Xrotation Yrotation
                        End Site
                        {
                          OFFSET 0.014 -0.0193 0.0113
                        }
                      }
                    }
                  }
                }
                JOINT lCarpal2
                {
                  OFFSET 2.0956 0.66 -0.3894
                  CHANNELS 6 Xposition Yposition Zposition Zrotation Xrotation Yrotation
                  JOINT lRing1
                  {
                    OFFSET 5.0395 -0.09 2.4971
                    CHANNELS 6 Xposition Yposition Zposition Zrotation Xrotation Yrotation
                    JOINT lRing2
                    {
                      OFFSET 3.7921 -1.552 1.4806
                      CHANNELS 6 Xposition Yposition Zposition Zrotation Xrotation Yrotation
                      JOINT lRing2_End
                      {
                        OFFSET 1.4655 -1.808 0.9609
                        CHANNELS 6 Xposition Yposition Zposition Zrotation Xrotation Yrotation
                        End Site
                        {
                          OFFSET 0.0147 -0.0181 0.0096
                        }
                      }
                    }
                  }
                  JOINT lPinky1
                  {
                    OFFSET 4.9141 -1.269 0.3591
                    CHANNELS 6 Xposition Yposition Zposition Zrotation Xrotation Yrotation
                    JOINT lPinky2
                    {
                      OFFSET 3.1477 -1.685 0.8462
                      CHANNELS 6 Xposition Yposition Zposition Zrotation Xrotation Yrotation
                      JOINT lPinky2_End
                      {
                        OFFSET 0.8055 -1.585 0.7955
                        CHANNELS 6 Xposition Yposition Zposition Zrotation Xrotation Yrotation
                        End Site
                        {
                          OFFSET 0.0081 -0.0158 0.008
                        }
                      }
                    }
                  }
                }
              }
            }
          }
        }
        JOINT rCollar
        {
          OFFSET -1.7069 20.075 5.0056
          CHANNELS 6 Xposition Yposition Zposition Zrotation Xrotation Yrotation
          JOINT rShldr
          {
            OFFSET -13.6458 -0.047 -4.849
            CHANNELS 6 Xposition Yposition Zposition Zrotation Xrotation Yrotation
            JOINT rForeArm
            {
              OFFSET -28.3255 -0.9759 2.2888
              CHANNELS 6 Xposition Yposition Zposition Zrotation Xrotation Yrotation
              JOINT rHand
              {
                OFFSET -22.1583 -0.53 10.8316
                CHANNELS 6 Xposition Yposition Zposition Zrotation Xrotation Yrotation
                JOINT rThumb1
                {
                  OFFSET -0.786 0.112 2.5817
                  CHANNELS 6 Xposition Yposition Zposition Zrotation Xrotation Yrotation
                  JOINT rThumb2
                  {
                    OFFSET -0.3601 -0.878 4.2331
                    CHANNELS 6 Xposition Yposition Zposition Zrotation Xrotation Yrotation
                    JOINT rThumb2_End
                    {
                      OFFSET -1.8127 -1.216 2.2227
                      CHANNELS 6 Xposition Yposition Zposition Zrotation Xrotation Yrotation
                      End Site
                      {
                        OFFSET -0.0181 -0.0122 0.0222
                      }
                    }
                  }
                }
                JOINT rCarpal1
                {
                  OFFSET -0.9571 1.114 1.7695
                  CHANNELS 6 Xposition Yposition Zposition Zrotation Xrotation Yrotation
                  JOINT rIndex1
                  {
                    OFFSET -4.1246 0.487 4.1451
                    CHANNELS 6 Xposition Yposition Zposition Zrotation Xrotation Yrotation
                    JOINT rIndex2
                    {
                      OFFSET -3.4052 -1.454 2.7682
                      CHANNELS 6 Xposition Yposition Zposition Zrotation Xrotation Yrotation
                      JOINT rIndex2_End
                      {
                        OFFSET -1.4531 -1.795 1.2713
                        CHANNELS 6 Xposition Yposition Zposition Zrotation Xrotation Yrotation
                        End Site
                        {
                          OFFSET -0.0145 -0.018 0.0127
                        }
                      }
                    }
                  }
                  JOINT rMid1
                  {
                    OFFSET -5.6954 0.21 2.1184
                    CHANNELS 6 Xposition Yposition Zposition Zrotation Xrotation Yrotation
                    JOINT rMid2
                    {
                      OFFSET -3.9766 -1.54 2.3863
                      CHANNELS 6 Xposition Yposition Zposition Zrotation Xrotation Yrotation
                      JOINT rMid2_End
                      {
                        OFFSET -1.4042 -1.926 1.125
                        CHANNELS 6 Xposition Yposition Zposition Zrotation Xrotation Yrotation
                        End Site
                        {
                          OFFSET -0.014 -0.0193 0.0113
                        }
                      }
                    }
                  }
                }
                JOINT rCarpal2
                {
                  OFFSET -2.0956 0.66 -0.3894
                  CHANNELS 6 Xposition Yposition Zposition Zrotation Xrotation Yrotation
                  JOINT rRing1
                  {
                    OFFSET -5.0395 -0.09 2.4971
                    CHANNELS 6 Xposition Yposition Zposition Zrotation Xrotation Yrotation
                    JOINT rRing2
                    {
                      OFFSET -3.7921 -1.552 1.4806
                      CHANNELS 6 Xposition Yposition Zposition Zrotation Xrotation Yrotation
                      JOINT rRing2_End
                      {
                        OFFSET -1.4655 -1.808 0.9609
                        CHANNELS 6 Xposition Yposition Zposition Zrotation Xrotation Yrotation
                        End Site
                        {
                          OFFSET -0.0147 -0.0181 0.0096
                        }
                      }
                    }
                  }
                  JOINT rPinky1
                  {
                    OFFSET -4.9141 -1.269 0.3592
                    CHANNELS 6 Xposition Yposition Zposition Zrotation Xrotation Yrotation
                    JOINT rPinky2
                    {
                      OFFSET -3.1477 -1.685 0.8462
                      CHANNELS 6 Xposition Yposition Zposition Zrotation Xrotation Yrotation
                      JOINT rPinky2_End
                      {
                        OFFSET -0.8055 -1.585 0.7955
                        CHANNELS 6 Xposition Yposition Zposition Zrotation Xrotation Yrotation
                        End Site
                        {
                          OFFSET -0.0081 -0.0158 0.008
                        }
                      }
                    }
                  }
                }
              }
            }
          }
        }
      }
    }
  }
  JOINT lThigh
  {
    OFFSET 8.367 -8.2066 0.5982
    CHANNELS 6 Xposition Yposition Zposition Zrotation Xrotation Yrotation
    JOINT lShin
    {
      OFFSET 2.1923 -43.463 -0.4932
      CHANNELS 6 Xposition Yposition Zposition Zrotation Xrotation Yrotation
      JOINT lFoot
      {
        OFFSET 0.7333 -45.8593 -2.6451
        CHANNELS 6 Xposition Yposition Zposition Zrotation Xrotation Yrotation
        End Site
        {
          OFFSET 2.6618 -4.2699 12.3931
        }
      }
    }
  }
  JOINT rThigh
  {
    OFFSET -8.367 -8.2066 0.5982
    CHANNELS 6 Xposition Yposition Zposition Zrotation Xrotation Yrotation
    JOINT rShin
    {
      OFFSET -2.1923 -43.463 -0.4931
      CHANNELS 6 Xposition Yposition Zposition Zrotation Xrotation Yrotation
      JOINT rFoot
      {
        OFFSET -0.7333 -45.8593 -2.6451
        CHANNELS 6 Xposition Yposition Zposition Zrotation Xrotation Yrotation
        End Site
        {
          OFFSET -2.6618 -4.2699 12.3931
        }
      }
    }
  }
}
MOTION
Frames:	4
Frame Time:	0.0333333
0 90.174 2.4664 0 0 -0 0 -1.186 -1.5018 0 0 -0 0 9.964 0.2134 0 0 -0 0 13.134 -3.2573 0 0 -0 0 20.686 -1.6905 0 0 -0 0 7.238 -0.1237 0 0 -0 1.7069 20.075 5.0056 0 0 -0 13.6458 -0.047 -4.849 1.66051 0.0835086 5.75766 28.3255 -0.9759 2.2888 -0.0175111 0.895433 15.7816 22.1583 -0.53 10.8316 7.95139e-016 -1.98785e-016 -0 0.786 0.112 2.5817 5.46658e-016 -3.97569e-016 -0 0.3601 -0.878 4.2331 5.96354e-016 0 -0 1.8127 -1.216 2.2227 3.97569e-016 1.98785e-016 9.54166e-015 0.9571 1.114 1.7695 1.49089e-016 -3.97569e-016 -0 4.1246 0.487 4.1451 6.4605e-016 0 3.18055e-015 3.4052 -1.454 2.7682 5.96354e-016 0 3.18055e-015 1.4531 -1.795 1.2713 8.94531e-016 -1.98785e-016 6.36111e-015 5.6954 0.21 2.1184 6.4605e-016 0 3.18055e-015 3.9766 -1.54 2.3863 5.96354e-016 0 3.18055e-015 1.4042 -1.926 1.125 8.94531e-016 -1.98785e-016 6.36111e-015 2.0956 0.66 -0.3894 1.49089e-016 -3.97569e-016 -0 5.0395 -0.09 2.4971 6.4605e-016 0 3.18055e-015 3.7921 -1.552 1.4806 5.96354e-016 0 3.18055e-015 1.4655 -1.808 0.9609 8.94531e-016 -1.98785e-016 6.36111e-015 4.9141 -1.269 0.3591 6.4605e-016 0 3.18055e-015 3.1477 -1.685 0.8462 5.96354e-016 0 3.18055e-015 0.8055 -1.585 0.7955 8.94531e-016 -1.98785e-016 6.36111e-015 -1.7069 20.075 5.0056 0 0 -0 -13.6458 -0.047 -4.849 -1.4496 0.0636048 -5.0245 -28.3255 -0.9759 2.2888 -1.74811 1.20616 -16.8394 -22.1583 -0.53 10.8316 -1.19271e-015 1.98785e-016 -3.18055e-015 -0.786 0.112 2.5817 -3.97569e-016 1.98785e-016 -3.18055e-015 -0.3601 -0.878 4.2331 -2.98177e-016 1.98785e-016 -3.18055e-015 -1.8127 -1.216 2.2227 -2.98177e-016 3.97569e-016 -0 -0.9571 1.114 1.7695 4.96962e-016 0 -6.36111e-015 -4.1246 0.487 4.1451 -9.93923e-017 3.97569e-016 -0 -3.4052 -1.454 2.7682 -8.94531e-016 5.96354e-016 -0 -1.4531 -1.795 1.2713 -3.97569e-016 3.97569e-016 -0 -5.6954 0.21 2.1184 -9.93923e-017 3.97569e-016 -0 -3.9766 -1.54 2.3863 -8.94531e-016 5.96354e-016 -0 -1.4042 -1.926 1.125 -3.97569e-016 3.97569e-016 -0 -2.0956 0.66 -0.3894 4.96962e-016 0 -6.36111e-015 -5.0395 -0.09 2.4971 -9.93923e-017 3.97569e-016 -0 -3.7921 -1.552 1.4806 -8.94531e-016 5.96354e-016 -0 -1.4655 -1.808 0.9609 -3.97569e-016 3.97569e-016 -0 -4.9141 -1.269 0.3592 -9.93923e-017 3.97569e-016 -0 -3.1477 -1.685 0.8462 -8.94531e-016 5.96354e-016 -0 -0.8055 -1.585 0.7955 -3.97569e-016 3.97569e-016 -0 8.367 -8.2066 0.5982 -4.66115 -1.03232 0.120763 2.1923 -43.463 -0.4932 0.00990601 1.55097 0.177175 0.7333 -45.8593 -2.6451 4.65196 -0.54114 -0.255042 -8.367 -8.2066 0.5982 4.66115 -1.03222 -0.120763 -2.1923 -43.463 -0.4931 -0.00990459 1.5509 -0.177176 -0.7333 -45.8593 -2.6451 -4.65196 -0.541171 0.255041 
1.57796e-005 40.3546 -8.72374 0 2.96278 -0 0 -1.186 -1.5018 6.80842e-017 10.6612 -2.88659e-016 -3.38813e-021 9.964 0.2134 5.49369e-024 21.3224 -9.74902e-024 0 13.134 -3.2573 -1.94203e-023 21.3224 3.0221e-023 0 20.686 -1.6905 2.04255e-021 -19.9741 2.05242e-021 0 7.238 -0.1237 0.00833833 -8.86643 -0.0630199 1.7069 20.075 5.0056 -5.46456e-024 -7.40904 4.92259e-025 13.6458 -0.047 -4.849 26.0828 -28.766 -51.8539 28.3255 -0.9759 2.2888 0.0809616 0.654334 7.63399 22.1583 -0.53 10.8316 -7.12125e-007 -4.19932e-007 -1.94287e-007 0.786 0.112 2.5817 -7.94503e-031 -1.43125e-014 -3.18055e-015 0.3601 -0.878 4.2331 3.18055e-015 -5.56597e-015 3.18055e-015 1.8127 -1.216 2.2227 -1.59028e-015 -1.59028e-015 -3.18055e-015 0.9571 1.114 1.7695 -1.14762e-030 -1.03368e-014 -6.36111e-015 4.1246 0.487 4.1451 -4.77083e-015 -1.59028e-015 6.36111e-015 3.4052 -1.454 2.7682 6.36111e-015 -4.77083e-015 -0 1.4531 -1.795 1.2713 -3.18055e-015 -3.18055e-015 -0 5.6954 0.21 2.1184 -4.77083e-015 -1.59028e-015 6.36111e-015 3.9766 -1.54 2.3863 6.36111e-015 -4.77083e-015 -0 1.4042 -1.926 1.125 -3.18055e-015 -3.18055e-015 -0 2.0956 0.66 -0.3894 -1.14762e-030 -1.03368e-014 -6.36111e-015 5.0395 -0.09 2.4971 -4.77083e-015 -1.59028e-015 6.36111e-015 3.7921 -1.552 1.4806 6.36111e-015 -4.77083e-015 -0 1.4655 -1.808 0.9609 -3.18055e-015 -3.18055e-015 -0 4.9141 -1.269 0.3591 -4.77083e-015 -1.59028e-015 6.36111e-015 3.1477 -1.685 0.8462 6.36111e-015 -4.77083e-015 -0 0.8055 -1.585 0.7955 -3.18055e-015 -3.18055e-015 -0 -1.7069 20.075 5.0056 -5.46456e-024 -7.40904 4.92259e-025 -13.6458 -0.047 -4.849 -25.9387 -28.5862 52.6399 -28.3255 -0.9759 2.2888 -1.87757 0.741685 -8.70362 -22.1583 -0.53 10.8316 -2.26562e-006 -5.8415e-007 -5.70178e-007 -0.786 0.112 2.5817 1.28292e-007 1.84525e-006 8.24527e-009 -0.3601 -0.878 4.2331 -2.13733e-006 1.2611e-006 -5.61932e-007 -1.8127 -1.216 2.2227 7.12443e-007 -4.20368e-007 1.87311e-007 -0.9571 1.114 1.7695 1.59028e-015 -1.59028e-015 -0 -4.1246 0.487 4.1451 1.28292e-007 1.84525e-006 8.24529e-009 -3.4052 -1.454 2.7682 -2.13733e-006 1.2611e-006 -5.61932e-007 -1.4531 -1.795 1.2713 7.12443e-007 -4.20368e-007 1.87311e-007 -5.6954 0.21 2.1184 1.28292e-007 1.84525e-006 8.24529e-009 -3.9766 -1.54 2.3863 -2.13733e-006 1.2611e-006 -5.61932e-007 -1.4042 -1.926 1.125 7.12443e-007 -4.20368e-007 1.87311e-007 -2.0956 0.66 -0.3894 1.59028e-015 -1.59028e-015 -0 -5.0395 -0.09 2.4971 1.28292e-007 1.84525e-006 8.24529e-009 -3.7921 -1.552 1.4806 -2.13733e-006 1.2611e-006 -5.61932e-007 -1.4655 -1.808 0.9609 7.12443e-007 -4.20368e-007 1.87311e-007 -4.9141 -1.269 0.3592 1.28292e-007 1.84525e-006 8.24529e-009 -3.1477 -1.685 0.8462 -2.13733e-006 1.2611e-006 -5.61932e-007 -0.8055 -1.585 0.7955 7.12443e-007 -4.20368e-007 1.87311e-007 8.367 -8.2066 0.5982 19.7974 -44.2707 4.38033 2.1923 -43.463 -0.4932 178.059 77.9382 -171.798 0.7333 -45.8593 -2.6451 5.33745 53.4237 1.26071 -8.367 -8.2066 0.5982 -19.8018 -44.2703 -4.38508 -2.1923 -43.463 -0.4931 -178.059 77.9382 171.798 -0.7333 -45.8593 -2.6451 -5.33745 53.4238 -1.26069 
1.60966e-005 16.455 -14.5224 0 4.29603 -0 0 -1.186 -1.5018 0 15.4821 -0 0 9.964 0.2134 0 30.9643 -0 0 13.134 -3.2573 0 30.9643 -0 0 20.686 -1.6905 -0 -29.0945 -0 0 7.238 -0.1237 -0.0127898 -12.9719 0.223644 1.7069 20.075 5.0056 -0 -10.7431 -0 13.6458 -0.047 -4.849 26.3511 -18.9214 -75.5865 28.3255 -0.9759 2.2888 0.113895 0.541781 3.96785 22.1583 -0.53 10.8316 9.54166e-015 -3.18055e-015 3.18055e-015 0.786 0.112 2.5817 -1.76556e-031 3.18055e-015 3.18055e-015 0.3601 -0.878 4.2331 1.59028e-014 0 3.18055e-015 1.8127 -1.216 2.2227 -0 -4.77083e-015 -0 0.9571 1.114 1.7695 -1.76556e-031 3.18055e-015 3.18055e-015 4.1246 0.487 4.1451 -1.10348e-030 7.95139e-015 7.95139e-015 3.4052 -1.454 2.7682 3.18055e-015 -4.77083e-015 -1.59028e-015 1.4531 -1.795 1.2713 -1.27222e-014 -1.59028e-015 -1.59028e-015 5.6954 0.21 2.1184 -1.10348e-030 7.95139e-015 7.95139e-015 3.9766 -1.54 2.3863 3.18055e-015 -4.77083e-015 -1.59028e-015 1.4042 -1.926 1.125 -1.27222e-014 -1.59028e-015 -1.59028e-015 2.0956 0.66 -0.3894 -1.76556e-031 3.18055e-015 3.18055e-015 5.0395 -0.09 2.4971 -1.10348e-030 7.95139e-015 7.95139e-015 3.7921 -1.552 1.4806 3.18055e-015 -4.77083e-015 -1.59028e-015 1.4655 -1.808 0.9609 -1.27222e-014 -1.59028e-015 -1.59028e-015 4.9141 -1.269 0.3591 -1.10348e-030 7.95139e-015 7.95139e-015 3.1477 -1.685 0.8462 3.18055e-015 -4.77083e-015 -1.59028e-015 0.8055 -1.585 0.7955 -1.27222e-014 -1.59028e-015 -1.59028e-015 -1.7069 20.075 5.0056 -0 -10.7431 -0 -13.6458 -0.047 -4.849 -26.3031 -18.7173 76.3203 -28.3255 -0.9759 2.2888 -1.91405 0.527658 -5.04312 -22.1583 -0.53 10.8316 3.97252e-031 -4.77083e-015 4.77083e-015 -0.786 0.112 2.5817 -3.18055e-015 -7.95139e-015 -3.18055e-015 -0.3601 -0.878 4.2331 -3.18055e-015 4.77083e-015 -0 -1.8127 -1.216 2.2227 -3.18055e-015 -3.18055e-015 3.18055e-015 -0.9571 1.114 1.7695 -4.41391e-031 -7.95139e-015 -3.18055e-015 -4.1246 0.487 4.1451 -3.18055e-015 -7.95139e-015 7.95139e-015 -3.4052 -1.454 2.7682 0 6.36111e-015 -0 -1.4531 -1.795 1.2713 -3.18055e-015 1.59028e-015 -0 -5.6954 0.21 2.1184 -3.18055e-015 -7.95139e-015 7.95139e-015 -3.9766 -1.54 2.3863 0 6.36111e-015 -0 -1.4042 -1.926 1.125 -3.18055e-015 1.59028e-015 -0 -2.0956 0.66 -0.3894 -4.41391e-031 -7.95139e-015 -3.18055e-015 -5.0395 -0.09 2.4971 -3.18055e-015 -7.95139e-015 7.95139e-015 -3.7921 -1.552 1.4806 0 6.36111e-015 -0 -1.4655 -1.808 0.9609 -3.18055e-015 1.59028e-015 -0 -4.9141 -1.269 0.3592 -3.18055e-015 -7.95139e-015 7.95139e-015 -3.1477 -1.685 0.8462 0 6.36111e-015 -0 -0.8055 -1.585 0.7955 -3.18055e-015 1.59028e-015 -0 8.367 -8.2066 0.5982 36.3032 -69.9167 22.114 2.1923 -43.463 -0.4932 178.505 31.7183 -161.906 0.7333 -45.8593 -2.6451 -17.2421 81.5504 26.4179 -8.367 -8.2066 0.5982 -36.3176 -69.9158 -22.1275 -2.1923 -43.463 -0.4931 -178.505 31.7186 161.906 -0.7333 -45.8593 -2.6451 17.2434 81.5508 -26.419 
1.45367e-005 21.9417 -13.086 0 3.99975 -0 0 -1.186 -1.5018 0 14.463 -0 0 9.964 0.2134 0 28.9259 -0 0 13.134 -3.2573 0 28.9259 -0 0 20.686 -1.6905 -0 -27.3594 -0 0 7.238 -0.1237 -0.0601605 -12.3158 0.860405 1.7069 20.075 5.0056 -0 -10.0022 -0 13.6458 -0.047 -4.849 25.8721 -22.6334 -71.2504 28.3255 -0.9759 2.2888 0.107207 0.566966 4.78253 22.1583 -0.53 10.8316 6.36111e-015 -1.98785e-015 7.95139e-016 0.786 0.112 2.5817 -6.36111e-015 3.57812e-015 2.38542e-015 0.3601 -0.878 4.2331 -8.27607e-032 1.19271e-015 3.97569e-015 1.8127 -1.216 2.2227 3.53113e-031 -6.36111e-015 3.18055e-015 0.9571 1.114 1.7695 -3.18055e-015 6.75868e-015 -7.95139e-016 4.1246 0.487 4.1451 3.18055e-015 -1.31198e-014 -0 3.4052 -1.454 2.7682 3.18055e-015 -4.37326e-015 3.18055e-015 1.4531 -1.795 1.2713 3.18055e-015 1.98785e-015 3.97569e-015 5.6954 0.21 2.1184 3.18055e-015 -1.31198e-014 -0 3.9766 -1.54 2.3863 3.18055e-015 -4.37326e-015 3.18055e-015 1.4042 -1.926 1.125 3.18055e-015 1.98785e-015 3.97569e-015 2.0956 0.66 -0.3894 -3.18055e-015 6.75868e-015 -7.95139e-016 5.0395 -0.09 2.4971 3.18055e-015 -1.31198e-014 -0 3.7921 -1.552 1.4806 3.18055e-015 -4.37326e-015 3.18055e-015 1.4655 -1.808 0.9609 3.18055e-015 1.98785e-015 3.97569e-015 4.9141 -1.269 0.3591 3.18055e-015 -1.31198e-014 -0 3.1477 -1.685 0.8462 3.18055e-015 -4.37326e-015 3.18055e-015 0.8055 -1.585 0.7955 3.18055e-015 1.98785e-015 3.97569e-015 -1.7069 20.075 5.0056 -0 -10.0022 -0 -13.6458 -0.047 -4.849 -25.8066 -22.4306 71.9927 -28.3255 -0.9759 2.2888 -1.90714 0.575419 -5.85652 -22.1583 -0.53 10.8316 1.27222e-014 9.54166e-015 -7.95139e-016 -0.786 0.112 2.5817 1.59028e-014 6.36111e-015 2.38542e-015 -0.3601 -0.878 4.2331 1.27222e-014 4.77083e-015 2.38542e-015 -1.8127 -1.216 2.2227 3.18055e-015 5.96354e-015 -2.38542e-015 -0.9571 1.114 1.7695 3.18055e-015 3.97569e-016 -0 -4.1246 0.487 4.1451 3.18055e-015 -1.43125e-014 1.27222e-014 -3.4052 -1.454 2.7682 9.54166e-015 2.38542e-015 7.95139e-016 -1.4531 -1.795 1.2713 3.18055e-015 6.36111e-015 -3.18055e-015 -5.6954 0.21 2.1184 3.18055e-015 -1.43125e-014 1.27222e-014 -3.9766 -1.54 2.3863 9.54166e-015 2.38542e-015 7.95139e-016 -1.4042 -1.926 1.125 3.18055e-015 6.36111e-015 -3.18055e-015 -2.0956 0.66 -0.3894 3.18055e-015 3.97569e-016 -0 -5.0395 -0.09 2.4971 3.18055e-015 -1.43125e-014 1.27222e-014 -3.7921 -1.552 1.4806 9.54166e-015 2.38542e-015 7.95139e-016 -1.4655 -1.808 0.9609 3.18055e-015 6.36111e-015 -3.18055e-015 -4.9141 -1.269 0.3592 3.18055e-015 -1.43125e-014 1.27222e-014 -3.1477 -1.685 0.8462 9.54166e-015 2.38542e-015 7.95139e-016 -0.8055 -1.585 0.7955 3.18055e-015 6.36111e-015 -3.18055e-015 8.367 -8.2066 0.5982 29.9717 -62.7716 13.0763 2.1923 -43.463 -0.4932 178.757 42.0785 -166.293 0.7333 -45.8593 -2.6451 -1.91021 74.4399 9.92214 -8.367 -8.2066 0.5982 -29.9825 -62.771 -13.0866 -2.1923 -43.463 -0.4931 -178.757 42.0786 166.293 -0.7333 -45.8593 -2.6451 1.91034 74.4402 -9.92224 
